<svg xmlns="http://www.w3.org/2000/svg" viewBox="0 0 400 300" width="406" height="306" class="illustration styles_illustrationTablet__1DWOa"><g id="_192_health_outline" data-name="#192_health_outline"><rect x="132.68" y="78.45" width="136.41" height="161.42" rx="6.34" fill="#2bb7da"></rect><path d="M262.74,240.87H139a7.34,7.34,0,0,1-7.34-7.34V84.8A7.35,7.35,0,0,1,139,77.45H262.74a7.35,7.35,0,0,1,7.34,7.35V233.53A7.34,7.34,0,0,1,262.74,240.87ZM139,79.45a5.35,5.35,0,0,0-5.34,5.35V233.53a5.35,5.35,0,0,0,5.34,5.34H262.74a5.35,5.35,0,0,0,5.34-5.34V84.8a5.35,5.35,0,0,0-5.34-5.35Z" fill="#093f68"></path><rect x="143.45" y="88.23" width="114.85" height="141.87" fill="#fff"></rect><path d="M258.31,231.1H143.45a1,1,0,0,1-1-1V88.23a1,1,0,0,1,1-1H258.31a1,1,0,0,1,1,1V230.1A1,1,0,0,1,258.31,231.1Zm-113.86-2H257.31V89.23H144.45Z" fill="#093f68"></path><path d="M222.62,71.16H212.37a11.5,11.5,0,0,0-23,0H179.14a3.7,3.7,0,0,0-3.69,3.7v13a3.7,3.7,0,0,0,3.69,3.7h43.48a3.7,3.7,0,0,0,3.7-3.7v-13A3.7,3.7,0,0,0,222.62,71.16Zm-21.35,2.91a4.7,4.7,0,1,1,4.7-4.7A4.71,4.71,0,0,1,201.27,74.07Z" fill="#2bb7da"></path><path d="M222.62,92.6H179.14a4.7,4.7,0,0,1-4.69-4.7v-13a4.7,4.7,0,0,1,4.69-4.7h9.32a12.51,12.51,0,0,1,24.84,0h9.32a4.71,4.71,0,0,1,4.7,4.7v13A4.71,4.71,0,0,1,222.62,92.6ZM179.14,72.16a2.69,2.69,0,0,0-2.69,2.7v13a2.69,2.69,0,0,0,2.69,2.7h43.48a2.7,2.7,0,0,0,2.7-2.7v-13a2.7,2.7,0,0,0-2.7-2.7H212.37a1,1,0,0,1-1-1,10.5,10.5,0,0,0-21,0,1,1,0,0,1-1,1Zm22.13,2.91a5.7,5.7,0,1,1,5.7-5.7A5.71,5.71,0,0,1,201.27,75.07Zm0-9.4a3.7,3.7,0,1,0,3.7,3.7A3.71,3.71,0,0,0,201.27,65.67Z" fill="#093f68"></path><path d="M200.89,179.78c-2-1.82-3.86-3.64-5.83-5.38q-8.19-7.26-16.43-14.47a135.07,135.07,0,0,1-10.59-10,36.5,36.5,0,0,1-7.16-10.74,33.45,33.45,0,0,1-2.2-8.47,45,45,0,0,1-.38-7.86,21.22,21.22,0,0,1,14.42-19.65c9.06-3,17-.89,23.86,5.69a26.27,26.27,0,0,1,4,5.1l.25.4.31-.49a26.09,26.09,0,0,1,10.17-9.55A21.83,21.83,0,0,1,223.29,102a21.51,21.51,0,0,1,12.55,5,21.23,21.23,0,0,1,7.32,13,33.07,33.07,0,0,1,.2,7.89,37,37,0,0,1-1.43,8.34,32.36,32.36,0,0,1-6.12,11.28,81.09,81.09,0,0,1-9.4,9.5c-5,4.42-10.08,8.78-15.08,13.22-3.43,3-6.77,6.17-10.14,9.27Z" fill="#f56132"></path><path d="M200.89,180.78a1,1,0,0,1-.68-.27l-1.85-1.72c-1.29-1.21-2.62-2.46-4-3.64q-6.83-6-13.68-12.05L178,160.68a140.15,140.15,0,0,1-10.67-10.06,37,37,0,0,1-7.34-11,34,34,0,0,1-2.27-8.73,46.09,46.09,0,0,1-.39-8,22.21,22.21,0,0,1,15.1-20.55c9.26-3,17.63-1.06,24.88,5.92a25.52,25.52,0,0,1,3.6,4.38,27,27,0,0,1,10-9.09A22.92,22.92,0,0,1,223.37,101a22.5,22.5,0,0,1,20.78,18.83,34.41,34.41,0,0,1,.21,8.14,38.56,38.56,0,0,1-1.47,8.55,33.19,33.19,0,0,1-6.3,11.63,83.49,83.49,0,0,1-9.51,9.62l-6.88,6c-2.74,2.4-5.49,4.79-8.21,7.21-2.36,2.09-4.72,4.27-7,6.37-1,1-2.08,1.93-3.13,2.88l-.3.28A1,1,0,0,1,200.89,180.78ZM180.51,102.9a23.74,23.74,0,0,0-7.48,1.27,20.24,20.24,0,0,0-13.73,18.74,44.07,44.07,0,0,0,.37,7.69,31.67,31.67,0,0,0,2.14,8.22,35,35,0,0,0,7,10.44,137.8,137.8,0,0,0,10.5,9.9L182,161.6q6.86,6,13.69,12.05c1.35,1.2,2.7,2.46,4,3.68l1.16,1.09,2.75-2.53c2.28-2.11,4.65-4.29,7-6.4q4.09-3.63,8.23-7.22,3.44-3,6.86-6a80.17,80.17,0,0,0,9.29-9.38A31.19,31.19,0,0,0,241,136a35.68,35.68,0,0,0,1.39-8.11,32.35,32.35,0,0,0-.18-7.66,20.34,20.34,0,0,0-7-12.36,20.67,20.67,0,0,0-12-4.83,21,21,0,0,0-11.4,2.27,24.78,24.78,0,0,0-9.78,9.2l-.31.49a1,1,0,0,1-.84.46h0A1,1,0,0,1,200,115l-.26-.41a25.36,25.36,0,0,0-3.89-4.91C191.24,105.15,186.08,102.9,180.51,102.9Z" fill="#093f68"></path><path d="M210.63,155.71h-.07a1,1,0,0,1-.9-.76L202,123.68l-10.68,25a1,1,0,0,1-.87.61,1,1,0,0,1-.92-.51L183,137.38H162.2a1,1,0,0,1,0-2h21.38a1,1,0,0,1,.87.5L190.22,146l11.06-25.88a1,1,0,0,1,1-.61,1,1,0,0,1,.89.76l7.68,31.14,8.68-21.8a1,1,0,0,1,.93-.63h20.3a1,1,0,0,1,0,2H221.13l-9.57,24.07A1,1,0,0,1,210.63,155.71Z" fill="#fff"></path><path d="M243.44,192.56H158.32a1,1,0,0,1,0-2h85.12a1,1,0,0,1,0,2Z" fill="#dfeaef"></path><path d="M243.44,204.69H158.32a1,1,0,0,1,0-2h85.12a1,1,0,0,1,0,2Z" fill="#dfeaef"></path><path d="M228.21,216.81H158.32a1,1,0,0,1,0-2h69.89a1,1,0,0,1,0,2Z" fill="#dfeaef"></path><path d="M266.56,141.23H275a3,3,0,0,1,3,3v29.36a0,0,0,0,1,0,0h-14.4a0,0,0,0,1,0,0V144.2A3,3,0,0,1,266.56,141.23Z" transform="translate(128.31 -121.53) rotate(32.77)" fill="#ffbc0e"></path><path d="M268.08,175.88a1,1,0,0,1-.54-.16l-12.11-7.79a1,1,0,0,1-.3-1.38L271,141.87a3.93,3.93,0,0,1,2.5-1.74,4,4,0,0,1,3,.54l7.1,4.57a4,4,0,0,1,1.74,2.51,3.94,3.94,0,0,1-.55,3l-15.89,24.69a1,1,0,0,1-.63.43A.75.75,0,0,1,268.08,175.88Zm-10.72-9.09,10.42,6.71,15.35-23.84a2,2,0,0,0-.59-2.73l-7.1-4.57a2,2,0,0,0-2.73.59Z" fill="#093f68"></path><path d="M236.12,213.69l5.5-3.31a13,13,0,0,0,4.28-4.15L266.67,174l-9.28-6-20.77,32.26a13.12,13.12,0,0,0-2,5.61l-.73,6.38Z" fill="#ffbc0e"></path><path d="M236.12,214.69a1,1,0,0,1-.55-.16l-2.23-1.44a1,1,0,0,1-.45-1l.73-6.38a14.17,14.17,0,0,1,2.16-6l20.76-32.25a1,1,0,0,1,1.39-.3l9.28,6a1,1,0,0,1,.44.63,1,1,0,0,1-.14.76l-20.77,32.26a14.14,14.14,0,0,1-4.61,4.46l-5.5,3.31A1.06,1.06,0,0,1,236.12,214.69ZM235,211.75l1.18.76,5-3a12.28,12.28,0,0,0,3.95-3.84l20.23-31.42-7.6-4.89L237.46,200.8A12.33,12.33,0,0,0,235.6,206Z" fill="#093f68"></path><path d="M232.61,212.57H235a0,0,0,0,1,0,0v2.82a1.17,1.17,0,0,1-1.17,1.17h0a1.17,1.17,0,0,1-1.17-1.17v-2.82A0,0,0,0,1,232.61,212.57Z" transform="translate(153.37 -92.4) rotate(32.77)" fill="#093f68"></path><path d="M233.33,217.43a2.1,2.1,0,0,1-1.17-.35h0a2.12,2.12,0,0,1-.94-1.36,2.15,2.15,0,0,1,.29-1.64l1.53-2.37a1,1,0,0,1,1.38-.3l2,1.27a1,1,0,0,1,.44.63,1,1,0,0,1-.14.75l-1.53,2.37A2.15,2.15,0,0,1,233.33,217.43Zm-.09-2a.18.18,0,0,0,.24-.05l1-1.53-.29-.19-1,1.54a.2.2,0,0,0,.05.23Z" fill="#093f68"></path><path d="M251.47,168.79a1,1,0,0,1-.9-.56,1,1,0,0,1,.46-1.34c3.06-1.5,6.79-9.66,9.51-15.63,2.54-5.58,3.93-8.52,5.27-9.22a3.08,3.08,0,0,1,2.76-.19c1.69.75,2.32,3,2.39,3.21a1,1,0,0,1-.71,1.23,1,1,0,0,1-1.22-.71h0c-.11-.4-.57-1.59-1.27-1.9a1.1,1.1,0,0,0-1,.13c-.82.47-2.8,4.8-4.38,8.28-3.16,6.93-6.74,14.79-10.45,16.6A1,1,0,0,1,251.47,168.79Z" fill="#093f68"></path><line x1="238.92" y1="196.67" x2="248.21" y2="202.65" fill="#093f68"></line><path d="M248.21,203.65a1,1,0,0,1-.54-.16l-9.29-6a1,1,0,1,1,1.09-1.68l9.28,6a1,1,0,0,1-.54,1.84Z" fill="#093f68"></path></g></svg>