<svg xmlns="http://www.w3.org/2000/svg" viewBox="0 0 400 300" width="406" height="306" class="illustration styles_illustrationTablet__1DWOa"><g id="_424_healthy_meal_outline" data-name="#424_healthy_meal_outline"><rect x="216.03" y="121.53" width="68.14" height="101.17" transform="translate(500.19 344.24) rotate(-180)" fill="#fff"></rect><path d="M284.16,223.71H216a1,1,0,0,1-1-1V121.53a1,1,0,0,1,1-1h68.13a1,1,0,0,1,1,1V222.71A1,1,0,0,1,284.16,223.71Zm-67.13-2h66.13V122.53H217Z" fill="#093f68"></path><rect x="177.77" y="121.53" width="38.26" height="101.17" fill="#2bb7da"></rect><path d="M216,223.71H177.77a1,1,0,0,1-1-1V121.53a1,1,0,0,1,1-1H216a1,1,0,0,1,1,1V222.71A1,1,0,0,1,216,223.71Zm-37.26-2H215V122.53H178.77Z" fill="#093f68"></path><polygon points="284.16 121.53 216.03 121.53 197.16 86.43 265.3 86.43 284.16 121.53" fill="#fff"></polygon><path d="M284.16,122.53H216a1,1,0,0,1-.88-.53L196.28,86.9a1,1,0,0,1,0-1,1,1,0,0,1,.86-.49H265.3a1,1,0,0,1,.88.53L285,121.06a1,1,0,0,1-.88,1.47Zm-67.54-2h65.87L264.7,87.43H198.83Z" fill="#093f68"></path><polygon points="177.77 121.53 216.03 121.53 196.9 86.43 177.77 121.53" fill="#2bb7da"></polygon><path d="M216,122.53H177.77a1,1,0,0,1-.88-1.48L196,86a1,1,0,0,1,.88-.52h0a1,1,0,0,1,.88.52l19.12,35.1a1,1,0,0,1-.87,1.48Zm-36.58-2h34.89l-17.44-32Z" fill="#093f68"></path><rect x="196.9" y="69.54" width="69.25" height="16.89" transform="translate(463.04 155.97) rotate(-180)" fill="#2bb7da"></rect><path d="M266.14,87.43H196.9a1,1,0,0,1-1-1V69.54a1,1,0,0,1,1-1h69.24a1,1,0,0,1,1,1V86.43A1,1,0,0,1,266.14,87.43Zm-68.24-2h67.24V70.54H197.9Z" fill="#093f68"></path><rect x="216.03" y="154.76" width="68.14" height="35.29" transform="translate(500.19 344.81) rotate(-180)" fill="#2bb7da"></rect><path d="M284.16,191.05H216a1,1,0,0,1-1-1V154.76a1,1,0,0,1,1-1h68.13a1,1,0,0,1,1,1v35.29A1,1,0,0,1,284.16,191.05Zm-67.13-2h66.13V155.76H217Z" fill="#093f68"></path><path d="M155.82,215.69s-6.66,5.37-19.52,6.94c-18.4,2.25-32.66-47.58-27.88-65.6s33.79-31.82,45.9-11c0,0,7.88-18.87,29.28-6.76s19.08,29.63,13.58,49c-6.07,21.4-12.45,31.5-22,34S155.82,215.69,155.82,215.69Z" fill="#f56132"></path><path d="M171.66,223.74c-7.3,0-13.87-5.05-15.9-6.77-2,1.41-8.52,5.33-19.34,6.65-4.49.55-8.92-1.64-13.17-6.51-12.33-14.16-19.46-46.52-15.79-60.34,2.85-10.74,14.28-20.38,26-22,8.67-1.15,16,2.1,20.76,9.22a19.71,19.71,0,0,1,10.36-8.86c5.69-1.95,12.25-.86,19.5,3.25,22.49,12.72,19.28,31.74,14.06,50.13-6.27,22.06-12.85,32.11-22.74,34.71A14.78,14.78,0,0,1,171.66,223.74Zm-15.84-9.05a1,1,0,0,1,.68.27c.09.08,9.48,8.71,18.4,6.37,9.1-2.4,15.28-12.05,21.32-33.32,5.21-18.36,8.13-35.83-13.11-47.85-6.73-3.81-12.74-4.85-17.85-3.11-7,2.39-10,9.31-10,9.38a1,1,0,0,1-1.79.12c-4.31-7.42-11.31-10.88-19.71-9.75-11,1.47-21.69,10.47-24.35,20.48-3.48,13.1,3.62,45,15.37,58.51,3.78,4.35,7.63,6.32,11.42,5.85,12.43-1.52,18.95-6.68,19-6.73A1,1,0,0,1,155.82,214.69Z" fill="#093f68"></path><path d="M152.42,149.5c.66-10.61-6.48-26.25-6.48-26.25l3.69-2.47c5.53,9.58,6,24.24,5.92,28.91" fill="#093f68"></path><path d="M155.55,150.69h0a1,1,0,0,1-1-1c0-1.77.16-17.11-5.27-27.45l-2.08,1.39c1.45,3.34,6.81,16.45,6.22,26a1,1,0,0,1-2-.13c.64-10.23-6.32-25.62-6.39-25.77a1,1,0,0,1,.36-1.25l3.68-2.46a1,1,0,0,1,.79-.14,1,1,0,0,1,.64.47c6.22,10.79,6.09,27.55,6.05,29.43A1,1,0,0,1,155.55,150.69Z" fill="#093f68"></path><path d="M165.32,156.14a1,1,0,0,1-.72-.31c-8-8.38-18-4.1-18.39-3.91a1,1,0,0,1-.82-1.83C145.5,150,157,145,166,154.44a1,1,0,0,1-.72,1.7Z" fill="#093f68"></path><path d="M118,184.78a1,1,0,0,1-.91-.6c-4.93-11.19-4-20-2.4-25.36a24.8,24.8,0,0,1,4.83-9.23A1,1,0,0,1,121,151a23.17,23.17,0,0,0-4.42,8.55c-1.5,5.05-2.31,13.3,2.35,23.87a1,1,0,0,1-.52,1.32A.93.93,0,0,1,118,184.78Z" fill="#fff"></path><polygon points="285.72 230.46 114.28 230.46 99.77 222.71 300.24 222.71 285.72 230.46" fill="#fff"></polygon><path d="M285.72,231.46H114.28a1,1,0,0,1-.47-.12l-14.52-7.75a1,1,0,0,1,.47-1.88H300.24a1,1,0,0,1,.47,1.88l-14.52,7.75A1,1,0,0,1,285.72,231.46Zm-171.19-2H285.47l10.77-5.75H103.76Z" fill="#093f68"></path></g></svg>